<?xml version="1.0" standalone="no"?>
<!DOCTYPE svg PUBLIC "-//W3C//DTD SVG 20010904//EN"
 "http://www.w3.org/TR/2001/REC-SVG-20010904/DTD/svg10.dtd">
<svg version="1.0" xmlns="http://www.w3.org/2000/svg"
 width="250.000000pt" height="250.000000pt" viewBox="0 0 250.000000 250.000000"
 preserveAspectRatio="xMidYMid meet">

<g transform="translate(0.000000,250.000000) scale(0.100000,-0.100000)"
fill="#000000" stroke="none">
<path d="M1120 2443 c-14 -2 -70 -13 -125 -24 -400 -81 -733 -369 -878 -759
-98 -264 -94 -578 12 -842 52 -128 82 -180 177 -303 102 -133 219 -231 375
-313 156 -83 254 -110 529 -145 62 -8 309 29 409 62 169 55 333 154 464 280
220 211 348 497 364 812 10 190 -44 424 -137 596 -156 289 -406 494 -725 594
-113 35 -365 58 -465 42z m390 -92 c257 -67 450 -187 611 -381 125 -150 192
-292 240 -501 28 -126 23 -350 -10 -479 -132 -511 -573 -859 -1096 -863 -442
-3 -835 240 -1029 638 -286 586 -16 1280 596 1534 40 17 120 42 178 56 93 22
123 24 265 21 125 -2 179 -8 245 -25z"/>
<path d="M1025 2015 c-5 -2 -45 -11 -87 -20 -53 -11 -78 -21 -78 -31 0 -8 8
-14 18 -14 38 0 52 -31 52 -118 l0 -81 -97 -3 -98 -3 -3 -37 -3 -37 98 -3 98
-3 5 -270 c5 -266 5 -271 31 -320 30 -60 72 -90 144 -105 71 -15 150 4 178 42
27 36 15 50 -28 32 -54 -22 -83 -18 -120 19 -43 43 -47 77 -43 372 l3 230 234
3 c153 1 238 -1 245 -8 7 -7 -43 -64 -162 -183 -157 -157 -172 -175 -172 -207
l0 -35 88 -27 c209 -65 337 -216 317 -371 -13 -100 -64 -180 -139 -220 -35
-19 -57 -22 -156 -22 -118 0 -157 10 -190 50 -11 13 -9 20 13 43 33 34 37 99
9 125 -35 32 -73 39 -113 22 -41 -19 -59 -49 -59 -99 0 -143 163 -229 405
-212 187 12 300 79 362 213 22 49 27 72 27 153 1 88 -1 99 -31 155 -49 94
-141 174 -282 245 -54 27 -79 45 -74 53 4 7 84 90 177 185 117 118 171 180
171 195 l0 22 -337 3 -338 2 0 135 0 135 -27 -1 c-16 0 -32 -2 -38 -4z"/>
<path d="M473 1730 c-53 -32 -57 -49 -64 -259 l-6 -194 -31 -28 c-26 -23 -32
-36 -32 -69 0 -33 6 -46 33 -69 l32 -29 5 -194 c6 -216 12 -242 70 -270 19
-10 56 -18 83 -18 l47 0 0 49 c0 45 -2 49 -29 54 -58 12 -61 22 -61 210 0 154
-2 175 -20 205 -11 18 -27 35 -35 38 -22 9 -18 23 10 46 36 28 45 76 45 251 0
144 2 159 20 177 11 11 31 20 45 20 23 0 25 3 25 50 l0 50 -52 0 c-35 0 -64
-7 -85 -20z"/>
<path d="M1910 1700 c0 -47 2 -50 25 -50 14 0 34 -9 45 -20 18 -18 20 -33 20
-187 0 -153 2 -171 21 -203 12 -19 28 -39 35 -43 19 -11 18 -33 -1 -41 -9 -3
-25 -25 -35 -48 -17 -37 -20 -66 -20 -205 0 -150 -2 -165 -20 -183 -11 -11
-31 -20 -45 -20 -23 0 -25 -3 -25 -50 l0 -50 50 0 c62 0 112 23 136 64 16 27
19 57 22 224 l4 193 34 27 c29 23 34 33 34 67 -1 34 -6 43 -33 60 l-32 20 -5
195 c-5 159 -9 202 -24 232 -22 45 -67 68 -135 68 l-51 0 0 -50z"/>
</g>
</svg>
