<?xml version="1.0" standalone="no"?>
<!DOCTYPE svg PUBLIC "-//W3C//DTD SVG 20010904//EN"
 "http://www.w3.org/TR/2001/REC-SVG-20010904/DTD/svg10.dtd">
<svg version="1.0" xmlns="http://www.w3.org/2000/svg"
 width="350.000000pt" height="350.000000pt" viewBox="0 0 350.000000 350.000000"
 preserveAspectRatio="xMidYMid meet">

<g transform="translate(0.000000,350.000000) scale(0.100000,-0.100000)"
fill="#000000" stroke="none">
<path d="M1615 3429 c-526 -46 -986 -315 -1276 -747 -374 -558 -374 -1296 0
-1854 384 -571 1064 -851 1741 -717 663 132 1186 653 1319 1314 45 224 45 436
0 660 -133 661 -656 1182 -1319 1314 -89 17 -323 44 -355 40 -5 -1 -55 -6
-110 -10z m428 -129 c490 -95 901 -407 1125 -855 212 -426 212 -954 0 -1380
-225 -450 -631 -758 -1130 -857 -161 -32 -425 -32 -586 0 -499 99 -905 407
-1130 857 -212 426 -212 954 0 1380 244 488 708 812 1253 876 113 13 347 2
468 -21z"/>
<path d="M1343 2807 c-135 -28 -143 -31 -143 -54 0 -18 6 -23 24 -23 13 0 35
-12 50 -26 25 -26 26 -31 26 -140 l0 -113 -137 -3 -138 -3 -3 -57 -3 -58 140
0 140 0 3 -378 3 -377 33 -67 c54 -111 136 -159 272 -162 125 -2 210 45 210
116 0 25 -3 29 -17 23 -130 -55 -197 -42 -245 47 -23 43 -23 46 -23 418 l0
375 338 3 c190 1 337 -2 335 -6 -1 -5 -110 -119 -240 -253 l-238 -243 0 -53
c0 -49 2 -53 28 -59 83 -18 176 -51 247 -87 102 -52 218 -165 261 -252 26 -54
29 -70 29 -155 0 -195 -90 -327 -254 -374 -110 -32 -318 -15 -380 32 -45 33
-49 50 -19 75 35 29 48 58 48 104 0 102 -105 162 -202 114 -58 -27 -81 -69
-80 -140 1 -68 21 -119 69 -172 48 -53 101 -83 198 -111 113 -32 352 -32 468
0 204 56 332 182 382 377 44 172 -8 347 -145 486 -75 76 -211 169 -317 215
-41 17 -77 35 -81 38 -3 4 110 123 252 265 232 232 257 261 254 287 l-3 29
-477 3 -478 2 0 195 0 195 -22 -1 c-13 -1 -87 -15 -165 -32z"/>
<path d="M662 2433 c-82 -40 -93 -82 -99 -383 -6 -269 -10 -291 -65 -314 -29
-13 -30 -15 -31 -84 -2 -70 -1 -72 26 -83 15 -7 37 -23 47 -37 18 -23 20 -41
20 -231 1 -327 17 -396 100 -439 35 -17 61 -22 122 -22 l78 0 0 75 0 75 -34 0
c-22 0 -45 9 -63 24 l-28 24 -5 249 c-5 236 -6 250 -28 284 -12 21 -34 44 -48
54 l-26 17 40 36 c24 23 44 52 51 77 6 23 11 126 11 240 1 275 10 305 92 305
l38 0 0 75 0 75 -82 0 c-56 0 -94 -6 -116 -17z"/>
<path d="M2670 2378 l0 -73 37 -3 c50 -3 79 -24 87 -63 3 -17 6 -128 6 -246 0
-240 4 -258 65 -311 l37 -34 -39 -38 c-56 -53 -63 -91 -63 -333 0 -262 -8
-287 -94 -287 l-36 0 0 -75 0 -75 78 0 c106 0 157 25 192 95 24 48 25 58 30
305 3 169 9 262 17 276 6 11 28 29 47 39 36 19 36 20 36 86 0 65 -1 67 -31 79
-61 26 -63 38 -69 325 -5 253 -6 261 -30 309 -38 77 -64 90 -176 94 l-94 4 0
-74z"/>
</g>
</svg>
